<?xml version="1.0" encoding="utf-8"?>
<!-- Generator: Adobe Illustrator 23.0.3, SVG Export Plug-In . SVG Version: 6.00 Build 0)  -->
<svg version="1.1" id="Layer_1" xmlns="http://www.w3.org/2000/svg" xmlns:xlink="http://www.w3.org/1999/xlink" x="0px" y="0px"
	 viewBox="0 0 400 400" style="enable-background:new 0 0 400 400;" xml:space="preserve">
<g>
	<g>
		<path d="M69.1,2.4c0.1,1.1,0.3,2.1,0.4,3.2c0.2,1.2,0.3,2.3,0.5,3.5c-0.4-3.2,0-0.2,0.1,0.5c0.1,1.1,0.3,2.2,0.4,3.3
			c1.4,10.3,2.7,20.7,3.9,31c3.7,30.2,7,60.5,9.6,90.9c2.6,31.2,4.5,62.4,2.4,93.6c-2.5,36.9-8.8,73.4-16.8,109.4
			c-4.4,20.1-9.3,40.2-15.2,59.9c-3.3,11.1,14,15.9,17.4,4.8C87.2,350.9,98,297,103.1,243.5c6.1-63.5-2.1-127.9-9.7-191
			c-2.2-18.3-4.5-36.6-7-54.9c-0.7-4.8-6.8-7.5-11.1-6.3C70.2-7.3,68.4-2.4,69.1,2.4L69.1,2.4z"/>
	</g>
</g>
<g>
	<g>
		<path d="M301.1,0c-4.2,49.1-7.5,98.4-9.5,147.6c-1.3,31.9-1.8,63.6,0.7,95.5c2.6,33.9,7,67.8,12,101.4c2.8,19.3,5.9,38.7,9.3,57.9
			c0.9,4.8,6.7,7.5,11.1,6.3c5-1.4,7.2-6.3,6.3-11.1c-8.5-47.3-15.4-95.2-19.7-143.1c-5.9-65.3-1-131,3.5-196.2
			c1.3-19.5,2.8-38.9,4.4-58.4c0.4-4.8-4.4-9-9-9C304.8-9,301.5-4.9,301.1,0L301.1,0z"/>
	</g>
</g>
<g>
	<g>
		<path d="M96.4,209c22.9,0,45.7,0,68.6,0c36.4,0,72.8,0,109.3,0c8.4,0,16.7,0,25.1,0c11.6,0,11.6-18,0-18c-22.9,0-45.7,0-68.6,0
			c-36.4,0-72.8,0-109.3,0c-8.4,0-16.7,0-25.1,0C84.8,191,84.8,209,96.4,209L96.4,209z"/>
	</g>
</g>
<g>
	<g>
		<path d="M209,278.9c0-31.6,0-63.2,0-94.7c0-49.9,0-99.8,0-149.7c0-11.5,0-23,0-34.4c0-11.6-18-11.6-18,0c0,31.6,0,63.2,0,94.7
			c0,49.9,0,99.8,0,149.7c0,11.5,0,23,0,34.4C191,290.5,209,290.5,209,278.9L209,278.9z"/>
	</g>
</g>
<g>
	<g>
		<path d="M136.8,247.2c-2.3,16.3-3.5,33-3.1,49.4c0.3,11.2,1.2,23,5.9,33.3c4.3,9.5,13,14.5,22.6,17.6c11.9,3.8,24.8,4.9,37.3,5
			c12.2,0.1,24.9-0.9,36.7-4.1c8.7-2.3,17.1-6.1,21.1-14.6c4.4-9.3,5.5-19.9,6.2-30c1.3-18,0.8-36.3-0.7-54.3c-0.4-4.8-3.8-9-9-9
			c-4.6,0-9.4,4.1-9,9c1.1,13.4,1.6,26.8,1.3,40.2c-0.2,9.7-0.7,19.4-2.4,27.7c-0.4,2-0.9,3.9-1.5,5.8c-0.1,0.4-1,2.7-0.5,1.6
			c0.4-1.1-0.6,1.2-0.8,1.5c-0.5,1-0.7,1.9,0,0.3c-0.1,0.3-1.7,1.8-0.5,0.7c1.2-1.1-0.6,0.4-1.1,0.6c-0.8,0.5-1.7,0.9-2.5,1.3
			c1.8-0.8-1.2,0.4-1.6,0.5c-1,0.3-2,0.6-2.9,0.9c-2.3,0.7-4.7,1.2-7.1,1.6c-5.1,1-9.9,1.4-15.4,1.8c-11,0.6-22.6,0.3-33.1-1.7
			c-2.6-0.5-5.2-1.1-7.7-1.8c-1.1-0.3-2.2-0.7-3.3-1c-1.7-0.6-1.2-0.4-2.1-0.8c-1.7-0.8-3.4-1.7-5-2.8c1.5,1.1-0.3-0.4-0.7-0.7
			c-1.3-1.1,0.3,1.1-0.8-1c-0.4-0.7-0.8-1.4-1.2-2.2c-0.9-1.8,0.1,0.4-0.4-1.1c-0.7-2.1-1.3-4.1-1.7-6.3c-1-4.8-1.3-8.1-1.7-13.5
			c-0.7-11.4-0.2-22.9,0.7-34.2c0.3-4.1,0.7-8.2,1.2-12.3c0.1-1.2,0.3-2.4,0.4-3.6c0.3-2.3,0,0-0.1,0.7c0.7-4.8-1.2-9.7-6.3-11.1
			C143.6,239.8,137.4,242.4,136.8,247.2L136.8,247.2z"/>
	</g>
</g>
<g>
	<g>
		<path d="M142.9,287.9c29.9,0,59.8,0,89.7,0c4.3,0,8.5,0,12.8,0c11.6,0,11.6-18,0-18c-29.9,0-59.8,0-89.7,0c-4.3,0-8.5,0-12.8,0
			C131.3,269.9,131.3,287.9,142.9,287.9L142.9,287.9z"/>
	</g>
</g>
<g>
	<g>
		<path d="M92,139.9c23.5,0,47,0,70.6,0c37.5,0,75,0,112.5,0c8.6,0,17.2,0,25.8,0c11.6,0,11.6-18,0-18c-23.5,0-47,0-70.6,0
			c-37.5,0-75,0-112.5,0c-8.6,0-17.2,0-25.8,0C80.5,121.9,80.4,139.9,92,139.9L92,139.9z"/>
	</g>
</g>
<g>
	<g>
		<path d="M200,74.8c30.2,0,60.4,0,90.6,0c4.3,0,8.6,0,13,0c11.6,0,11.6-18,0-18c-30.2,0-60.4,0-90.6,0c-4.3,0-8.6,0-13,0
			C188.4,56.8,188.4,74.8,200,74.8L200,74.8z"/>
	</g>
</g>
</svg>
